<?xml version="1.0" standalone="no"?>
<!DOCTYPE svg PUBLIC "-//W3C//DTD SVG 20010904//EN"
 "http://www.w3.org/TR/2001/REC-SVG-20010904/DTD/svg10.dtd">
<svg version="1.0" xmlns="http://www.w3.org/2000/svg"
 width="579.000000pt" height="579.000000pt" viewBox="0 0 579.000000 579.000000"
 preserveAspectRatio="xMidYMid meet">
<metadata>
Created by potrace 1.14, written by Peter Selinger 2001-2017
</metadata>
<g transform="translate(0.000000,579.000000) scale(0.100000,-0.100000)"
fill="#000000" stroke="none">
<path d="M2254 5203 c-31 -65 -74 -156 -96 -203 -22 -47 -60 -128 -85 -180
-131 -274 -178 -374 -243 -515 -15 -33 -58 -123 -95 -200 -37 -77 -78 -165
-92 -195 -14 -30 -53 -111 -85 -180 -33 -69 -93 -195 -133 -280 -40 -85 -94
-200 -120 -255 -26 -55 -67 -140 -90 -190 -23 -49 -140 -297 -260 -550 -120
-253 -233 -494 -253 -535 -19 -41 -68 -144 -108 -228 -41 -85 -74 -155 -74
-157 0 -2 -31 -68 -69 -147 -37 -78 -78 -163 -89 -188 -11 -25 -57 -121 -101
-213 -45 -93 -81 -170 -81 -172 0 -2 -36 -79 -80 -171 -44 -91 -80 -170 -80
-175 0 -5 119 -9 269 -9 l268 0 33 72 c19 40 69 146 112 236 43 90 78 165 78
167 0 1 36 79 81 171 45 93 96 201 114 239 18 39 54 115 80 170 26 55 58 124
72 154 14 30 60 128 104 218 l78 163 221 0 221 0 65 138 c36 75 85 179 110
229 24 51 44 97 44 103 0 6 -75 10 -215 10 -118 0 -215 2 -215 5 0 4 38 85
140 300 29 61 87 184 130 275 43 91 100 212 127 270 101 213 136 287 173 365
21 44 61 130 90 190 130 274 157 331 161 344 5 13 44 -66 264 -534 67 -143
141 -300 165 -350 23 -49 59 -126 80 -170 21 -44 57 -120 80 -170 96 -206 137
-293 170 -359 l35 -71 263 0 c144 -1 262 2 262 6 0 4 -22 53 -49 110 -26 57
-62 133 -79 169 -16 36 -62 135 -102 220 -40 85 -87 187 -105 225 -18 39 -51
108 -73 155 -21 47 -50 108 -62 135 -13 28 -49 106 -81 174 -33 68 -59 125
-59 127 0 2 -18 41 -41 86 -22 46 -55 117 -74 158 -37 83 -116 253 -146 315
-11 22 -100 213 -199 425 l-179 385 -61 3 -61 3 -55 -118z"/>
<path d="M3346 5208 c-29 -62 -81 -171 -115 -242 -33 -70 -61 -130 -61 -131 0
-1 -37 -78 -81 -171 -45 -93 -92 -193 -105 -221 l-23 -53 41 -87 c22 -49 56
-122 75 -163 60 -126 119 -253 134 -287 7 -18 17 -33 20 -33 3 0 29 48 56 108
136 289 167 352 172 352 3 -1 25 -42 48 -93 24 -51 79 -168 123 -260 44 -93
80 -170 80 -172 0 -1 36 -78 80 -169 44 -92 80 -168 80 -170 0 -2 29 -64 64
-137 35 -74 98 -208 141 -299 43 -91 106 -225 141 -299 35 -74 64 -138 64
-143 0 -4 -371 -8 -825 -8 -454 0 -825 2 -825 4 0 3 23 54 51 113 28 59 67
142 86 183 19 41 48 103 65 136 l31 62 -20 43 c-12 24 -49 103 -83 174 -34 72
-87 182 -117 245 l-55 115 -33 -70 c-19 -38 -55 -115 -80 -170 -108 -229 -125
-265 -175 -370 -29 -60 -65 -137 -80 -170 -15 -33 -60 -127 -99 -209 -39 -81
-71 -149 -71 -151 0 -1 -33 -72 -74 -156 -40 -85 -85 -179 -99 -209 -14 -30
-50 -107 -80 -170 -30 -63 -71 -151 -92 -195 -21 -44 -69 -145 -106 -224 -38
-79 -69 -145 -69 -146 0 -2 -36 -78 -80 -170 -44 -92 -80 -168 -80 -170 0 -2
-31 -68 -69 -147 -141 -295 -191 -401 -191 -409 0 -5 121 -9 268 -9 l268 0 29
62 c16 35 60 128 98 208 38 80 86 181 107 225 20 44 60 127 87 185 61 127 120
251 183 385 72 152 117 247 186 393 l63 132 1053 0 1053 0 14 -32 c8 -18 42
-91 77 -163 34 -71 84 -177 112 -235 27 -58 85 -177 127 -265 42 -88 90 -187
105 -220 35 -76 111 -234 212 -445 44 -91 86 -180 94 -197 l14 -33 260 0 c143
0 260 2 260 5 0 3 -16 40 -36 82 -20 43 -50 107 -66 143 -42 92 -92 198 -154
328 -30 62 -54 114 -54 116 0 3 -23 53 -51 113 -78 165 -399 853 -419 898 -10
22 -48 102 -84 178 -36 76 -66 140 -66 142 0 2 -22 50 -49 107 -83 177 -123
261 -151 323 -15 33 -47 101 -70 150 -23 50 -51 110 -62 135 -11 25 -49 105
-84 179 -35 73 -64 135 -64 136 0 2 -30 65 -66 141 -36 77 -75 159 -86 184
-20 44 -197 424 -265 570 -20 41 -48 102 -63 135 -15 33 -51 110 -80 170 -66
141 -62 131 -184 395 l-104 225 -61 3 -62 3 -53 -113z"/>
<path d="M3518 1952 l-56 -3 65 -137 c139 -291 167 -350 208 -437 24 -49 73
-153 110 -230 37 -77 85 -178 107 -225 23 -47 70 -146 106 -220 35 -74 75
-159 88 -187 l24 -53 260 0 c143 0 260 2 260 5 0 5 -197 430 -368 795 -19 41
-88 190 -153 330 -66 140 -131 280 -147 310 l-27 55 -210 0 c-115 0 -236 -1
-267 -3z"/>
</g>
</svg>
